<?xml version="1.0" standalone="no"?>
<!DOCTYPE svg PUBLIC "-//W3C//DTD SVG 20010904//EN"
 "http://www.w3.org/TR/2001/REC-SVG-20010904/DTD/svg10.dtd">
<svg version="1.0" xmlns="http://www.w3.org/2000/svg"
 width="434.000000pt" height="434.000000pt" viewBox="0 0 434.000000 434.000000"
 preserveAspectRatio="xMidYMid meet">
<metadata>
Created by potrace 1.11, written by Peter Selinger 2001-2013
</metadata>
<g transform="translate(0.000000,434.000000) scale(0.100000,-0.100000)"
fill="#000000" stroke="none">
<path d="M1998 4245 c-2 -1 -30 -5 -63 -8 -33 -4 -85 -11 -115 -16 -30 -6 -66
-12 -80 -15 -39 -6 -187 -45 -212 -55 -50 -20 -63 -25 -73 -26 -13 -2 -98 -40
-147 -65 -21 -11 -38 -16 -38 -12 0 4 -4 2 -8 -3 -4 -6 -32 -23 -62 -39 -30
-16 -63 -36 -72 -44 -10 -8 -18 -11 -18 -6 0 5 -4 4 -8 -1 -9 -13 -79 -65 -87
-65 -3 0 -13 -6 -21 -12 -25 -22 -38 -32 -89 -73 -28 -22 -58 -50 -68 -62 -10
-13 -23 -21 -28 -18 -5 4 -9 2 -9 -2 0 -5 -33 -42 -72 -84 -40 -41 -93 -99
-117 -129 -25 -30 -51 -61 -60 -67 -8 -7 -11 -13 -6 -13 5 0 0 -9 -11 -20 -27
-27 -44 -48 -44 -55 0 -8 -43 -68 -55 -77 -5 -4 -6 -8 -2 -8 4 0 -8 -24 -26
-53 -19 -30 -38 -63 -41 -75 -4 -12 -12 -22 -18 -22 -6 0 -8 -3 -5 -6 4 -4 0
-19 -8 -33 -19 -34 -39 -84 -37 -93 1 -5 -2 -8 -8 -8 -5 0 -10 -6 -10 -14 0
-8 -4 -25 -9 -38 -5 -13 -10 -27 -11 -33 -1 -5 -6 -18 -12 -28 -5 -10 -11 -26
-13 -35 -2 -9 -16 -62 -30 -117 -14 -55 -28 -118 -31 -140 -3 -22 -7 -47 -10
-55 -18 -54 -26 -480 -11 -605 10 -87 33 -211 52 -285 9 -36 18 -73 20 -82 2
-9 9 -27 16 -40 7 -13 11 -23 10 -23 -1 0 2 -13 8 -28 6 -16 11 -33 11 -38 0
-5 7 -21 16 -34 9 -14 13 -25 9 -25 -4 0 -2 -7 5 -15 7 -8 10 -15 7 -15 -3 0
22 -50 54 -111 32 -61 59 -113 59 -115 0 -2 7 -12 15 -21 8 -10 15 -22 14 -27
0 -5 3 -12 8 -15 5 -3 25 -28 43 -56 19 -27 40 -56 48 -64 7 -8 21 -25 30 -40
24 -36 82 -100 183 -200 94 -93 110 -108 179 -161 25 -19 50 -42 57 -50 7 -8
13 -10 13 -5 0 7 3 7 8 0 17 -24 137 -96 270 -163 78 -39 146 -71 150 -71 4 0
57 -16 117 -36 107 -34 178 -51 259 -61 22 -3 43 -7 46 -9 13 -8 190 -19 310
-19 173 0 322 15 457 47 34 8 64 12 67 9 3 -3 6 1 6 8 0 7 3 11 6 7 3 -3 23 1
45 8 21 8 39 12 39 9 0 -2 13 2 30 11 16 8 31 15 32 15 2 0 19 5 38 12 19 7
38 11 43 10 4 -1 7 3 7 8 0 6 7 10 15 10 39 0 369 189 402 230 7 8 13 11 13 6
0 -4 9 2 20 15 10 13 19 21 20 17 0 -3 18 11 39 32 21 21 41 37 42 36 2 -2 52
45 111 105 59 60 104 109 101 109 -3 0 3 8 13 17 11 10 35 38 54 63 19 25 37
47 40 50 13 13 70 102 70 110 0 5 6 13 13 17 7 4 18 19 24 33 23 46 70 129 83
145 7 8 10 15 6 15 -3 0 5 22 19 50 25 50 102 263 111 310 3 14 9 41 14 60 52
196 70 613 35 791 -3 13 -7 42 -10 64 -9 70 -13 88 -34 171 -47 184 -130 387
-215 527 -19 31 -31 57 -28 57 4 0 2 4 -3 8 -13 9 -62 75 -61 82 0 6 -4 11
-131 160 -136 159 -315 315 -473 411 -30 18 -57 35 -60 38 -9 11 -184 93 -255
121 -38 15 -79 31 -90 35 -11 4 -25 9 -31 10 -6 2 -36 10 -66 19 -30 8 -66 18
-79 20 -13 3 -24 5 -24 6 0 3 -26 7 -140 25 -93 15 -475 31 -487 20z m397
-290 c79 -11 95 -14 154 -26 31 -6 63 -13 71 -14 8 -2 15 -4 15 -5 0 -1 5 -3
45 -13 8 -2 28 -9 44 -16 16 -6 36 -13 45 -14 9 -2 45 -16 81 -32 36 -17 67
-28 69 -27 2 2 7 -1 10 -6 6 -9 79 -49 94 -51 4 0 17 -10 29 -21 12 -11 28
-20 35 -20 7 0 13 -4 13 -10 0 -5 5 -10 11 -10 6 0 16 -6 24 -12 7 -7 34 -29
60 -48 25 -19 62 -50 80 -67 19 -18 38 -33 42 -34 4 0 24 -20 43 -43 19 -24
38 -41 43 -39 4 2 7 -3 7 -12 0 -9 4 -14 9 -11 5 3 11 -4 14 -15 3 -12 10 -18
17 -14 6 3 9 3 8 -2 -5 -14 45 -73 55 -66 6 3 7 1 4 -4 -4 -6 4 -22 18 -37 13
-14 22 -26 19 -26 -5 0 8 -17 38 -50 9 -10 14 -21 11 -24 -3 -3 2 -8 11 -12 9
-3 14 -10 11 -14 -3 -4 4 -18 14 -32 18 -22 102 -181 102 -193 0 -2 10 -28 23
-57 21 -48 35 -91 35 -111 0 -4 8 -21 16 -37 9 -17 13 -30 11 -30 -3 0 2 -22
9 -48 8 -27 17 -64 20 -83 2 -19 7 -46 10 -61 15 -74 17 -108 20 -303 2 -115
0 -230 -5 -255 -4 -25 -10 -65 -13 -90 -7 -56 -23 -134 -36 -179 -6 -19 -9
-37 -6 -39 3 -3 0 -10 -5 -17 -5 -6 -11 -20 -13 -31 -1 -10 -5 -23 -8 -29 -6
-9 -32 -84 -34 -95 -1 -7 -113 -231 -128 -255 -26 -44 -81 -120 -91 -127 -7
-5 -7 -8 -1 -8 6 0 6 -3 0 -8 -6 -4 -29 -29 -50 -57 -22 -27 -58 -67 -79 -87
-22 -21 -36 -38 -31 -38 4 0 -5 -10 -21 -22 -16 -13 -44 -37 -61 -55 -18 -18
-37 -33 -43 -33 -6 0 -8 -4 -5 -10 3 -5 1 -10 -4 -10 -10 0 -44 -25 -82 -62
-9 -9 -19 -14 -22 -12 -2 2 -16 -7 -30 -20 -15 -14 -27 -22 -27 -19 0 3 -15
-6 -34 -21 -19 -14 -39 -26 -45 -26 -6 0 -11 -5 -11 -12 0 -6 -3 -8 -7 -5 -3
4 -13 1 -22 -6 -9 -7 -41 -24 -71 -37 -30 -14 -58 -29 -62 -35 -4 -5 -8 -6 -8
-2 0 5 -6 5 -12 0 -7 -4 -15 -8 -18 -9 -32 -6 -60 -18 -60 -26 0 -5 -4 -7 -9
-4 -8 5 -39 -2 -91 -21 -8 -3 -24 -7 -36 -8 -11 -2 -38 -8 -60 -13 -195 -51
-570 -44 -799 15 -33 8 -64 16 -70 18 -11 2 -21 6 -130 47 -44 17 -84 35 -89
40 -6 4 -18 8 -27 8 -10 0 -19 4 -21 9 -1 5 -10 11 -18 13 -8 2 -17 5 -20 8
-6 7 -96 60 -107 63 -4 1 -17 12 -30 24 -12 13 -27 23 -33 23 -5 0 -18 8 -28
17 -10 10 -38 34 -62 53 -25 19 -61 52 -82 72 -20 21 -42 38 -49 38 -7 0 -9 3
-6 7 4 3 -5 15 -20 25 -16 10 -24 18 -19 18 5 0 1 9 -9 20 -10 11 -23 17 -29
13 -6 -3 -8 -3 -4 1 7 8 -9 31 -54 78 -14 15 -24 28 -22 28 4 0 0 6 -31 43 -6
7 -30 44 -54 82 -24 39 -49 73 -55 77 -6 4 -8 8 -4 8 4 0 -1 15 -11 33 -37 67
-45 82 -47 93 -1 5 -11 30 -23 54 -11 24 -21 48 -21 52 0 5 -7 25 -17 46 -9
20 -15 40 -15 44 1 4 -3 20 -9 35 -12 32 -14 40 -35 143 -15 74 -17 89 -32
205 -9 71 -7 344 3 430 6 52 36 222 47 264 13 52 100 293 109 301 7 7 47 93
46 100 -1 3 7 14 16 25 9 11 17 24 16 29 0 5 3 12 8 15 12 8 44 60 41 65 -2 2
8 13 22 25 14 11 22 20 17 21 -4 0 1 8 10 19 10 10 32 36 48 57 47 61 213 226
285 283 82 65 75 60 140 101 30 19 58 38 61 43 3 5 9 8 13 8 3 -1 41 16 84 38
42 21 88 42 101 46 13 4 40 14 60 23 20 9 41 17 46 18 6 2 55 14 110 29 55 14
150 32 210 39 113 13 351 14 440 1z"/>
<path d="M1968 3814 c-46 -6 -120 -19 -163 -29 -44 -10 -84 -18 -90 -19 -34
-6 -185 -61 -185 -67 0 -7 -66 -43 -80 -44 -3 0 -33 -19 -67 -42 -76 -53 -152
-130 -160 -163 -6 -25 -53 -90 -100 -136 -12 -13 -23 -26 -23 -29 0 -4 -6 -13
-14 -21 -30 -29 -58 -126 -51 -174 13 -88 11 -214 -4 -226 -11 -9 -10 -13 4
-28 12 -12 18 -31 17 -58 -2 -39 20 -88 32 -70 3 5 1 24 -4 43 -13 51 -25 160
-22 197 3 25 8 32 20 30 13 -2 19 -18 23 -58 5 -49 19 -105 36 -150 4 -8 7
-17 8 -20 0 -3 9 -20 19 -38 11 -21 17 -51 15 -80 -1 -26 1 -57 5 -70 11 -33
71 -87 144 -129 57 -32 69 -35 113 -30 60 7 87 -4 114 -46 12 -19 34 -36 55
-42 96 -29 194 -100 196 -143 0 -15 4 -25 7 -22 4 3 14 -5 22 -18 9 -12 20
-20 24 -18 4 3 18 -6 29 -19 12 -14 28 -25 36 -25 8 0 21 -6 28 -14 25 -25 57
-29 65 -9 17 45 67 57 77 18 4 -14 15 -34 26 -45 13 -13 18 -32 18 -67 0 -26
0 -52 2 -58 6 -23 -3 -36 -56 -91 -51 -53 -86 -103 -84 -121 1 -5 -2 -30 -6
-58 -4 -27 -8 -54 -9 -60 -2 -17 25 -67 66 -122 22 -29 39 -57 39 -63 0 -5 4
-10 8 -10 5 0 17 -17 28 -37 67 -124 106 -166 201 -216 42 -21 66 -41 74 -59
21 -50 -5 -180 -60 -298 -6 -14 -13 -36 -16 -49 -2 -14 -10 -28 -16 -31 -6 -4
-10 -11 -10 -16 1 -5 -6 -17 -14 -27 -8 -9 -11 -17 -7 -17 4 0 3 -4 -3 -8 -5
-4 -23 -33 -39 -65 -31 -62 -28 -75 17 -78 9 -1 23 -2 30 -3 6 -1 31 3 55 10
23 7 42 9 42 6 0 -4 4 -2 8 3 4 6 24 21 44 35 21 14 38 28 38 33 0 4 6 7 14 7
8 0 16 3 18 8 2 4 46 24 99 45 54 21 114 53 137 72 22 19 43 35 47 35 14 0
174 111 205 141 17 17 43 48 58 68 35 46 41 52 135 108 42 26 90 59 106 75 27
27 121 179 121 196 0 18 45 118 79 177 19 32 34 65 34 72 0 7 4 13 8 13 11 0
22 57 14 77 -10 32 -92 76 -146 79 -29 1 -60 10 -78 23 -16 12 -36 21 -44 21
-20 0 -67 39 -67 55 0 8 -13 24 -30 37 -16 12 -30 26 -30 31 0 18 -51 77 -66
77 -7 0 -14 4 -14 8 0 5 -6 9 -12 10 -142 17 -191 42 -260 132 l-34 45 -120 1
-119 1 -58 38 c-55 37 -59 38 -97 26 -89 -26 -159 -64 -170 -91 -18 -43 -47
-53 -101 -37 -38 12 -53 12 -82 2 -28 -9 -41 -9 -65 0 -53 23 -70 50 -66 108
3 61 7 84 17 93 14 14 6 37 -20 61 -24 20 -35 23 -82 19 -71 -7 -95 6 -87 46
3 17 18 57 32 89 33 74 28 94 -24 84 -26 -4 -51 -20 -85 -55 -67 -68 -119 -74
-176 -22 -60 56 -38 258 37 329 42 41 99 57 171 49 44 -5 58 -3 74 11 15 15
34 17 94 15 87 -3 113 -14 113 -46 0 -13 13 -48 29 -78 17 -31 27 -58 24 -62
-4 -3 -1 -6 6 -6 6 0 18 14 25 32 12 27 12 39 -1 77 -37 116 -37 111 18 163
28 26 72 57 98 70 46 22 49 25 53 71 7 66 53 128 104 143 28 8 39 16 40 31 1
24 12 43 24 43 5 0 21 5 37 12 47 19 61 19 66 -2 5 -19 6 -19 48 -2 24 9 47
21 51 27 12 16 3 30 -18 31 -46 2 -54 5 -82 29 -17 15 -38 23 -51 20 -13 -2
-21 1 -21 10 0 17 56 33 120 34 25 0 58 4 73 7 28 6 29 5 26 -29 -4 -43 -4
-44 45 -50 73 -10 87 10 26 37 -22 9 -47 30 -57 46 -10 18 -40 41 -73 56 -30
15 -78 42 -106 60 -43 27 -59 31 -91 27 -27 -4 -44 -1 -54 10 -14 13 -33 20
-96 32 -34 6 -53 -19 -43 -55 8 -27 6 -32 -16 -42 -13 -6 -24 -17 -24 -25 0
-7 -9 -22 -21 -34 -16 -16 -23 -18 -35 -8 -8 6 -12 21 -10 34 2 12 -1 22 -7
23 -58 7 -123 26 -161 49 -17 9 -18 13 -5 25 34 34 90 50 155 45 36 -2 67 -1
69 4 3 4 0 9 -6 11 -21 7 2 34 31 36 24 2 30 -2 30 -18 0 -17 7 -20 43 -21 23
0 51 -2 62 -4 96 -17 102 -17 108 -1 8 21 -26 43 -78 50 -96 14 -115 18 -115
26 0 11 -114 8 -222 -6z"/>
<path d="M1898 2654 c-35 -19 -36 -33 -2 -26 15 3 29 -1 34 -8 6 -10 15 -10
40 -1 48 16 74 14 88 -9 7 -11 19 -20 27 -20 8 0 24 -9 34 -19 21 -21 93 -33
126 -21 16 6 9 12 -42 35 -35 16 -63 32 -63 36 0 4 -25 17 -55 28 -65 24 -148
27 -187 5z"/>
<path d="M2313 2531 c6 -24 -16 -46 -38 -37 -9 3 -15 0 -15 -8 0 -11 14 -13
68 -9 37 3 88 6 115 6 46 2 47 2 25 19 -12 9 -25 16 -28 16 -3 -1 -18 4 -34
11 -16 6 -44 14 -64 17 -31 5 -34 4 -29 -15z"/>
<path d="M2110 2480 c0 -10 68 -25 77 -16 6 6 -40 26 -63 26 -8 0 -14 -4 -14
-10z"/>
</g>
</svg>
